<svg xmlns="http://www.w3.org/2000/svg" width="512" height="512" viewBox="0 0 512 512">
  <!-- Full-bleed opaque background for maskable / apple-touch safe zone -->
  <rect width="512" height="512" fill="#050a16"/>

  <!-- Radar content scaled to ~72% and centered to stay inside the maskable safe area -->
  <g transform="translate(256 256) scale(0.72) translate(-256 -256)">
    <path d="M256 256 L256 96 A160 160 0 0 1 396 196 Z" fill="#11243a"/>
    <g fill="none" stroke="#23344c" stroke-width="4">
      <circle cx="256" cy="256" r="160"/>
      <circle cx="256" cy="256" r="108"/>
      <circle cx="256" cy="256" r="56"/>
    </g>
    <g stroke="#1b2a40" stroke-width="3">
      <line x1="256" y1="84" x2="256" y2="428"/>
      <line x1="84" y1="256" x2="428" y2="256"/>
    </g>
    <circle cx="256" cy="256" r="14" fill="#e2e8f0"/>
    <circle cx="256" cy="256" r="26" fill="none" stroke="#475569" stroke-width="3"/>
    <circle cx="352" cy="168" r="40" fill="none" stroke="#2b6c8f" stroke-width="5"/>
    <circle cx="352" cy="168" r="24" fill="#38bdf8"/>
    <g fill="none" stroke-linecap="round">
      <path d="M392 132 a56 56 0 0 1 0 72" stroke="#38bdf8" stroke-width="5"/>
      <path d="M408 116 a80 80 0 0 1 0 104" stroke="#1f6f99" stroke-width="5"/>
    </g>
  </g>
</svg>
